<?xml version="1.0" encoding="UTF-8" standalone="no"?>
<!DOCTYPE svg PUBLIC "-//W3C//DTD SVG 1.1//EN"
 "http://www.w3.org/Graphics/SVG/1.1/DTD/svg11.dtd">
<!-- Generated by graphviz version 2.47.3 (20210619.1520)
 -->
<!-- Title: dependencies Pages: 1 -->
<svg width="793pt" height="247pt"
 viewBox="0.00 0.00 793.00 246.80" xmlns="http://www.w3.org/2000/svg" xmlns:xlink="http://www.w3.org/1999/xlink">
<g id="graph0" class="graph" transform="scale(1 1) rotate(0) translate(4 242.8)">
<title>dependencies</title>
<polygon fill="white" stroke="transparent" points="-4,4 -4,-242.8 789,-242.8 789,4 -4,4"/>
<text text-anchor="middle" x="392.5" y="-8.2" font-family="sans-serif" font-size="14.00">dependencies</text>
<g id="clust1" class="cluster">
<title>cluster_CoreModule</title>
<polygon fill="none" stroke="black" stroke-dasharray="1,5" points="8,-32.8 8,-230.8 777,-230.8 777,-32.8 8,-32.8"/>
</g>
<g id="clust2" class="cluster">
<title>cluster_CoreModule_declarations</title>
<polygon fill="none" stroke="black" points="251,-40.8 251,-92.8 647,-92.8 647,-40.8 251,-40.8"/>
</g>
<g id="clust6" class="cluster">
<title>cluster_CoreModule_imports</title>
<polygon fill="none" stroke="black" points="137,-40.8 137,-92.8 243,-92.8 243,-40.8 137,-40.8"/>
</g>
<g id="clust7" class="cluster">
<title>cluster_CoreModule_exports</title>
<polygon fill="none" stroke="black" points="16,-170.8 16,-222.8 769,-222.8 769,-170.8 16,-170.8"/>
</g>
<!-- FooterComponent -->
<g id="node1" class="node">
<title>FooterComponent</title>
<polygon fill="#ffffb3" stroke="black" points="638.88,-84.8 521.12,-84.8 521.12,-48.8 638.88,-48.8 638.88,-84.8"/>
<text text-anchor="middle" x="580" y="-62.6" font-family="Times,serif" font-size="14.00">FooterComponent</text>
</g>
<!-- CoreModule -->
<g id="node4" class="node">
<title>CoreModule</title>
<polygon fill="#8dd3c7" stroke="black" points="415.26,-149.8 412.26,-153.8 391.26,-153.8 388.26,-149.8 328.74,-149.8 328.74,-113.8 415.26,-113.8 415.26,-149.8"/>
<text text-anchor="middle" x="372" y="-127.6" font-family="Times,serif" font-size="14.00">CoreModule</text>
</g>
<!-- FooterComponent&#45;&gt;CoreModule -->
<g id="edge1" class="edge">
<title>FooterComponent&#45;&gt;CoreModule</title>
<path fill="none" stroke="black" d="M571.34,-84.83C571.34,-101.2 571.34,-122.8 571.34,-122.8 571.34,-122.8 425.75,-122.8 425.75,-122.8"/>
<polygon fill="black" stroke="black" points="425.75,-119.3 415.75,-122.8 425.75,-126.3 425.75,-119.3"/>
</g>
<!-- HeaderComponent -->
<g id="node2" class="node">
<title>HeaderComponent</title>
<polygon fill="#ffffb3" stroke="black" points="502.74,-84.8 381.26,-84.8 381.26,-48.8 502.74,-48.8 502.74,-84.8"/>
<text text-anchor="middle" x="442" y="-62.6" font-family="Times,serif" font-size="14.00">HeaderComponent</text>
</g>
<!-- HeaderComponent&#45;&gt;CoreModule -->
<g id="edge2" class="edge">
<title>HeaderComponent&#45;&gt;CoreModule</title>
<path fill="none" stroke="black" d="M398.25,-84.91C398.25,-84.91 398.25,-103.79 398.25,-103.79"/>
<polygon fill="black" stroke="black" points="394.75,-103.79 398.25,-113.79 401.75,-103.79 394.75,-103.79"/>
</g>
<!-- NavComponent -->
<g id="node3" class="node">
<title>NavComponent</title>
<polygon fill="#ffffb3" stroke="black" points="363.15,-84.8 258.85,-84.8 258.85,-48.8 363.15,-48.8 363.15,-84.8"/>
<text text-anchor="middle" x="311" y="-62.6" font-family="Times,serif" font-size="14.00">NavComponent</text>
</g>
<!-- NavComponent&#45;&gt;CoreModule -->
<g id="edge3" class="edge">
<title>NavComponent&#45;&gt;CoreModule</title>
<path fill="none" stroke="black" d="M345.97,-84.91C345.97,-84.91 345.97,-103.79 345.97,-103.79"/>
<polygon fill="black" stroke="black" points="342.47,-103.79 345.97,-113.79 349.47,-103.79 342.47,-103.79"/>
</g>
<!-- FooterComponent  -->
<g id="node6" class="node">
<title>FooterComponent </title>
<polygon fill="#fb8072" stroke="black" points="760.88,-214.8 639.12,-214.8 639.12,-178.8 760.88,-178.8 760.88,-214.8"/>
<text text-anchor="middle" x="700" y="-192.6" font-family="Times,serif" font-size="14.00">FooterComponent </text>
</g>
<!-- CoreModule&#45;&gt;FooterComponent  -->
<g id="edge5" class="edge">
<title>CoreModule&#45;&gt;FooterComponent </title>
<path fill="none" stroke="black" stroke-dasharray="5,2" d="M415.56,-131.8C504.78,-131.8 700,-131.8 700,-131.8 700,-131.8 700,-168.69 700,-168.69"/>
<polygon fill="black" stroke="black" points="696.5,-168.69 700,-178.69 703.5,-168.69 696.5,-168.69"/>
</g>
<!-- HeaderComponent  -->
<g id="node7" class="node">
<title>HeaderComponent </title>
<polygon fill="#fb8072" stroke="black" points="621.74,-214.8 496.26,-214.8 496.26,-178.8 621.74,-178.8 621.74,-214.8"/>
<text text-anchor="middle" x="559" y="-192.6" font-family="Times,serif" font-size="14.00">HeaderComponent </text>
</g>
<!-- CoreModule&#45;&gt;HeaderComponent  -->
<g id="edge6" class="edge">
<title>CoreModule&#45;&gt;HeaderComponent </title>
<path fill="none" stroke="black" stroke-dasharray="5,2" d="M415.52,-140.8C456.61,-140.8 511.97,-140.8 511.97,-140.8 511.97,-140.8 511.97,-168.77 511.97,-168.77"/>
<polygon fill="black" stroke="black" points="508.47,-168.77 511.97,-178.77 515.47,-168.77 508.47,-168.77"/>
</g>
<!-- IconsModule  -->
<g id="node8" class="node">
<title>IconsModule </title>
<polygon fill="#fb8072" stroke="black" points="478.87,-214.8 385.13,-214.8 385.13,-178.8 478.87,-178.8 478.87,-214.8"/>
<text text-anchor="middle" x="432" y="-192.6" font-family="Times,serif" font-size="14.00">IconsModule </text>
</g>
<!-- CoreModule&#45;&gt;IconsModule  -->
<g id="edge7" class="edge">
<title>CoreModule&#45;&gt;IconsModule </title>
<path fill="none" stroke="black" stroke-dasharray="5,2" d="M400.35,-149.91C400.35,-149.91 400.35,-168.79 400.35,-168.79"/>
<polygon fill="black" stroke="black" points="396.85,-168.79 400.35,-178.79 403.85,-168.79 396.85,-168.79"/>
</g>
<!-- NavComponent  -->
<g id="node9" class="node">
<title>NavComponent </title>
<polygon fill="#fb8072" stroke="black" points="367.15,-214.8 258.85,-214.8 258.85,-178.8 367.15,-178.8 367.15,-214.8"/>
<text text-anchor="middle" x="313" y="-192.6" font-family="Times,serif" font-size="14.00">NavComponent </text>
</g>
<!-- CoreModule&#45;&gt;NavComponent  -->
<g id="edge8" class="edge">
<title>CoreModule&#45;&gt;NavComponent </title>
<path fill="none" stroke="black" stroke-dasharray="5,2" d="M347.85,-149.91C347.85,-149.91 347.85,-168.79 347.85,-168.79"/>
<polygon fill="black" stroke="black" points="344.35,-168.79 347.85,-178.79 351.35,-168.79 344.35,-168.79"/>
</g>
<!-- TemplatesModule  -->
<g id="node10" class="node">
<title>TemplatesModule </title>
<polygon fill="#fb8072" stroke="black" points="240.86,-214.8 119.14,-214.8 119.14,-178.8 240.86,-178.8 240.86,-214.8"/>
<text text-anchor="middle" x="180" y="-192.6" font-family="Times,serif" font-size="14.00">TemplatesModule </text>
</g>
<!-- CoreModule&#45;&gt;TemplatesModule  -->
<g id="edge9" class="edge">
<title>CoreModule&#45;&gt;TemplatesModule </title>
<path fill="none" stroke="black" stroke-dasharray="5,2" d="M328.28,-140.8C270.25,-140.8 175.02,-140.8 175.02,-140.8 175.02,-140.8 175.02,-168.77 175.02,-168.77"/>
<polygon fill="black" stroke="black" points="171.52,-168.77 175.02,-178.77 178.52,-168.77 171.52,-168.77"/>
</g>
<!-- UiModule  -->
<g id="node11" class="node">
<title>UiModule </title>
<polygon fill="#fb8072" stroke="black" points="101.55,-214.8 24.45,-214.8 24.45,-178.8 101.55,-178.8 101.55,-214.8"/>
<text text-anchor="middle" x="63" y="-192.6" font-family="Times,serif" font-size="14.00">UiModule </text>
</g>
<!-- CoreModule&#45;&gt;UiModule  -->
<g id="edge10" class="edge">
<title>CoreModule&#45;&gt;UiModule </title>
<path fill="none" stroke="black" stroke-dasharray="5,2" d="M328.71,-131.8C243.67,-131.8 63,-131.8 63,-131.8 63,-131.8 63,-168.69 63,-168.69"/>
<polygon fill="black" stroke="black" points="59.5,-168.69 63,-178.69 66.5,-168.69 59.5,-168.69"/>
</g>
<!-- IconsModule -->
<g id="node5" class="node">
<title>IconsModule</title>
<polygon fill="#8dd3c7" stroke="black" points="234.87,-84.8 231.87,-88.8 210.87,-88.8 207.87,-84.8 145.13,-84.8 145.13,-48.8 234.87,-48.8 234.87,-84.8"/>
<text text-anchor="middle" x="190" y="-62.6" font-family="Times,serif" font-size="14.00">IconsModule</text>
</g>
<!-- IconsModule&#45;&gt;CoreModule -->
<g id="edge4" class="edge">
<title>IconsModule&#45;&gt;CoreModule</title>
<path fill="none" stroke="black" d="M204.98,-84.83C204.98,-101.2 204.98,-122.8 204.98,-122.8 204.98,-122.8 318.55,-122.8 318.55,-122.8"/>
<polygon fill="black" stroke="black" points="318.55,-126.3 328.55,-122.8 318.55,-119.3 318.55,-126.3"/>
</g>
</g>
</svg>
